PathFileType	4	(X/Y/Z)	SUBJ63_3_walk_RCNL2025.trc
DataRate	CameraRate	NumFrames	NumMarkers	Units	OrigDataRate	OrigDataStartFrame	OrigNumFrames
100	100	9	25	mm	100	143	228
Frame#	Time	R_Shoulder			L_Shoulder			C7			J_Notch			R_Elbow			L_Elbow			R_Wrist			L_Wrist			R_Asis			L_Asis			Sacral			Thoracic			Sternum			R_Thigh_Lateral			R_Knee_Lateral			R_Shank_Lateral			R_Ankle_Lateral			R_Heel			R_Toe			L_Thigh_Lateral			L_Knee_Lateral			L_Shank_Lateral			L_Ankle_Lateral			L_Heel			L_Toe		
		X1	Y1	Z1	X2	Y2	Z2	X3	Y3	Z3	X4	Y4	Z4	X5	Y5	Z5	X6	Y6	Z6	X7	Y7	Z7	X8	Y8	Z8	X9	Y9	Z9	X10	Y10	Z10	X11	Y11	Z11	X12	Y12	Z12	X13	Y13	Z13	X14	Y14	Z14	X15	Y15	Z15	X16	Y16	Z16	X17	Y17	Z17	X18	Y18	Z18	X19	Y19	Z19	X20	Y20	Z20	X21	Y21	Z21	X22	Y22	Z22	X23	Y23	Z23	X24	Y24	Z24	X25	Y25	Z25
143	1.42000000	1119.035767	1270.264526	-112.801315	1053.292114	1265.374390	-441.765228	1007.485046	1330.840698	-267.156311	1124.813232	1222.989502	-286.119385	1124.750000	1002.050598	13.809832	912.837402	994.091797	-518.612488	1241.583069	803.918396	31.287661	898.895294	790.488739	-609.881561	1125.527466	820.447693	-138.444229	1147.886353	816.894653	-392.142548	912.710815	829.710693	-288.719238	920.343994	1152.629150	-249.299484	1168.596191	1042.222168	-286.916901	960.020691	499.766144	-99.149704	936.768066	446.312408	-149.124924	855.276062	278.939911	-111.910759	782.733826	83.007332	-195.862717	743.207153	96.033958	-247.874924	891.300232	41.964798	-195.013046	1193.159058	455.214569	-479.179413	1208.848633	440.346985	-412.130646	1269.973877	262.766754	-450.019623	1337.023315	73.316467	-378.291992	1294.931763	47.934200	-322.553558	1449.669067	104.408157	-381.870636
144	1.43000000	1134.038330	1268.601440	-114.248703	1068.872803	1262.886475	-443.244568	1022.515381	1328.845093	-268.870178	1140.126587	1220.754883	-287.241943	1140.287354	1001.038757	13.207015	926.593384	992.594788	-519.431213	1258.764221	803.923767	31.315768	907.360168	789.721802	-610.719910	1141.115234	819.155029	-138.813736	1164.666504	816.203308	-392.577698	929.112488	827.473511	-290.608673	935.550293	1150.507690	-250.913330	1184.157471	1039.959717	-287.148773	972.616699	499.689758	-98.305046	949.327698	446.132690	-148.089874	863.546082	280.999878	-110.512581	784.896301	87.103317	-193.656479	745.547913	101.787308	-245.330048	891.993896	41.974335	-194.300613	1212.116699	454.881317	-479.145172	1226.691772	439.056458	-411.937622	1288.676880	261.588928	-449.488373	1354.293579	72.058304	-377.635498	1311.380249	46.533623	-322.439514	1467.042114	102.817535	-379.421326
145	1.44000000	1148.924072	1267.140259	-115.703285	1084.599976	1260.697998	-444.861298	1037.644165	1327.034302	-270.724274	1155.540771	1218.865112	-288.464294	1155.425781	1000.088013	12.528991	940.975525	991.159912	-520.420349	1275.379089	803.929962	31.339625	916.720978	788.948029	-611.408234	1156.954712	817.893738	-139.451828	1181.520996	815.865479	-393.111237	945.720032	825.425171	-292.434113	950.938904	1148.501709	-252.713211	1199.901123	1038.132080	-287.489929	986.136047	499.433441	-97.368080	962.918335	445.729218	-146.884933	872.611084	283.186188	-108.905197	787.651550	91.639832	-191.290512	748.595459	108.162987	-242.582108	892.845947	41.934090	-193.631180	1232.002197	455.420074	-479.121063	1244.955200	438.067871	-411.784302	1305.684326	259.972931	-448.900024	1368.112305	69.990211	-376.792603	1324.267944	44.923088	-322.097565	1481.110718	99.190575	-377.095978
146	1.45000000	1163.687500	1265.911499	-117.160385	1100.461548	1258.829956	-446.606781	1052.856445	1325.419067	-272.709961	1171.054932	1217.344971	-289.793701	1170.204468	999.226746	11.769601	955.951599	989.794861	-521.559937	1291.414124	803.925690	31.352024	927.036469	788.177887	-611.972900	1173.026978	816.637573	-140.367599	1198.479736	815.746582	-393.775635	962.511292	823.571167	-294.190521	966.505249	1146.626953	-254.707138	1215.845825	1036.762207	-287.982880	1000.654053	498.945068	-96.339844	977.653870	445.047058	-145.504166	882.565735	285.500061	-107.129074	791.158203	96.662003	-188.883163	752.608276	115.206413	-239.784317	893.870667	41.837112	-193.044983	1252.498413	456.415863	-479.102051	1263.424805	437.288269	-411.682922	1321.111694	257.960632	-448.295319	1378.928223	67.259277	-375.854431	1334.066040	43.243237	-321.617493	1492.302002	93.765160	-374.979492
147	1.46000000	1178.330078	1264.937134	-118.618393	1116.453369	1257.286499	-448.467316	1068.137207	1324.011597	-274.819946	1186.669922	1216.197754	-291.230377	1184.664429	998.485840	10.919580	971.483215	988.504028	-522.829285	1306.864868	803.903046	31.343978	938.359558	787.411530	-612.444641	1189.299927	815.371399	-141.558273	1215.561523	815.714539	-394.598724	979.449524	821.890137	-295.887939	982.233826	1144.911865	-256.897308	1232.003662	1035.850342	-288.656891	1016.219788	498.191711	-95.212982	993.638916	444.051575	-143.932602	893.529785	287.950348	-105.212868	795.583923	102.238388	-186.516785	757.861389	122.970215	-237.062515	895.099243	41.725525	-192.558243	1273.199707	457.542419	-479.133911	1281.837402	436.644531	-411.682953	1335.149048	255.690552	-447.727692	1387.285645	64.132179	-374.926575	1341.348389	41.721264	-321.103119	1501.119751	86.929741	-373.148621
148	1.47000000	1192.865112	1264.230957	-120.075844	1132.576782	1256.057739	-450.422394	1083.477539	1322.832275	-277.044861	1202.384033	1215.411987	-292.764282	1198.844116	997.894287	9.970053	987.530701	987.291504	-524.210815	1321.734802	803.859161	31.305677	950.735168	786.635193	-612.854095	1205.718750	814.090637	-143.010727	1232.758911	815.666504	-395.600403	996.480713	820.344849	-297.542084	998.097473	1143.402832	-259.271820	1248.373901	1035.376465	-289.519958	1032.877930	497.160492	-93.984596	1010.969299	442.727234	-142.160965	905.653320	290.548065	-103.172043	801.103333	108.455421	-184.221588	764.630920	131.512436	-234.498138	896.596008	41.705807	-192.157257	1293.621948	458.602692	-479.309418	1299.916504	436.108673	-411.870483	1348.046997	253.372498	-447.266357	1393.756958	60.942600	-374.115173	1346.723755	40.607864	-320.655365	1508.086670	79.182823	-371.664459
149	1.48000000	1207.323730	1263.802856	-121.530571	1148.835205	1255.125366	-452.444153	1098.878784	1321.913696	-279.369202	1218.187134	1214.969849	-294.372742	1212.773926	997.477051	8.914130	1004.056763	986.164001	-525.690796	1336.031311	803.796783	31.227096	964.200897	785.825623	-613.227600	1222.205078	812.802551	-144.701920	1250.024170	815.551819	-396.788361	1013.531128	818.901733	-299.163269	1014.057373	1142.160400	-261.797821	1264.938965	1035.305420	-290.554779	1050.687256	495.849640	-92.660172	1029.725220	441.070526	-140.201508	919.118103	293.293213	-101.015823	807.905884	115.394577	-181.987640	773.171631	140.881516	-232.124252	898.476929	41.951744	-191.795380	1313.241699	459.495880	-479.751678	1317.417480	435.703033	-412.347656	1360.111206	251.241440	-446.989960	1398.858765	58.014088	-373.503723	1350.748291	40.086437	-320.352905	1513.665527	71.089859	-370.552399
150	1.49000000	1221.755859	1263.660889	-122.981918	1165.228882	1254.470093	-454.497253	1114.348999	1321.294800	-281.766052	1234.058228	1214.851440	-296.023010	1226.474365	997.255554	7.748237	1021.026917	985.133789	-527.256653	1349.761108	803.723114	31.096731	978.791840	784.960236	-613.587982	1238.664185	811.528687	-146.598022	1267.268677	815.383728	-398.157440	1030.510620	817.550781	-300.747406	1030.066406	1141.245117	-264.419006	1281.660767	1035.589600	-291.721710	1069.727051	494.255676	-91.251625	1049.961304	439.084473	-138.097549	934.135498	296.157776	-98.760040	816.214111	123.106522	-179.802826	783.687988	151.093872	-229.934921	900.931091	42.697807	-191.391296	1331.598267	460.182159	-480.578461	1334.166870	435.475037	-413.191284	1371.677002	249.488525	-446.966156	1402.977905	55.579975	-373.125000	1353.849731	40.195808	-320.234406	1518.186279	63.226250	-369.774841
151	1.50000000	1236.222534	1263.807983	-124.433990	1181.749268	1254.078857	-456.539307	1129.891235	1321.004761	-284.193237	1249.968262	1215.035522	-297.679230	1239.959351	997.248474	6.473514	1038.408203	984.219421	-528.893127	1362.929626	803.648193	30.900218	994.545319	784.027252	-613.959442	1255.000366	810.305847	-148.653152	1284.378174	815.237244	-399.691528	1047.323608	816.318115	-302.272614	1046.072632	1140.700806	-267.059235	1298.478638	1036.172241	-292.967072	1090.090576	492.370422	-89.781593	1071.702759	436.779785	-135.923645	950.933594	299.075531	-96.441696	826.270447	131.595901	-177.682220	796.305115	162.105545	-227.906525	904.242188	44.216778	-190.832230	1348.455811	460.666138	-481.838928	1350.073608	435.451202	-414.407532	1383.030029	248.183975	-447.214081	1406.352173	53.742432	-372.943634	1356.301025	40.824474	-320.287842	1521.834595	56.092037	-369.222443
